<svg id="レイヤー_1" data-name="レイヤー 1" xmlns="http://www.w3.org/2000/svg" viewBox="0 0 141.73 141.73"><defs><style>.cls-1{fill:#231815;}.cls-2{fill:#d32f2f;}</style></defs><title>agryeel_icon_R_08</title><g id="_グループ_" data-name="&lt;グループ&gt;"><path id="_パス_" data-name="&lt;パス&gt;" class="cls-2" d="M302.14,251.83l29.34,50.82a2.55,2.55,0,0,0,3.48.93l4.42-2.55a2.55,2.55,0,0,0,.93-3.49L311,246.72Z" transform="translate(-210.77 -209.19)"/><rect id="_パス_2" data-name="&lt;パス&gt;" class="cls-2" x="298.9" y="242.3" width="10.2" height="5.1" transform="translate(-292.47 -24.38) rotate(-30)"/><path id="_パス_3" data-name="&lt;パス&gt;" class="cls-2" d="M306,237.84s-12.15-17.63-42-11.71c-29.11,5.76-35.58,31.17-35.58,31.17s19.16-15.62,41.18-18.67A48.29,48.29,0,0,1,297,243Z" transform="translate(-210.77 -209.19)"/></g><g id="_グループ_2" data-name="&lt;グループ&gt;"><polygon id="_パス_4" data-name="&lt;パス&gt;" class="cls-2" points="26.97 117.17 26.97 117.17 26.97 127.56 32.17 127.56 32.17 117.17 26.97 117.17"/><path id="_パス_5" data-name="&lt;パス&gt;" class="cls-2" d="M242.27,309v13.86A13.86,13.86,0,0,0,256.13,309V295.17A13.86,13.86,0,0,0,242.27,309Z" transform="translate(-210.77 -209.19)"/><path id="_パス_6" data-name="&lt;パス&gt;" class="cls-2" d="M238.8,309v13.86A13.86,13.86,0,0,1,224.95,309V295.17A13.86,13.86,0,0,1,238.8,309Z" transform="translate(-210.77 -209.19)"/><path id="_パス_7" data-name="&lt;パス&gt;" class="cls-2" d="M242.27,281.73v13.86a13.86,13.86,0,0,0,13.86-13.86V267.87A13.86,13.86,0,0,0,242.27,281.73Z" transform="translate(-210.77 -209.19)"/><path id="_パス_8" data-name="&lt;パス&gt;" class="cls-2" d="M238.8,281.73v13.86a13.86,13.86,0,0,1-13.86-13.86V267.87A13.86,13.86,0,0,1,238.8,281.73Z" transform="translate(-210.77 -209.19)"/></g><g id="_グループ_3" data-name="&lt;グループ&gt;"><polygon id="_パス_9" data-name="&lt;パス&gt;" class="cls-2" points="69.49 117.17 69.49 117.17 69.49 127.56 74.69 127.56 74.69 117.17 69.49 117.17"/><path id="_パス_10" data-name="&lt;パス&gt;" class="cls-2" d="M284.79,309v13.86A13.86,13.86,0,0,0,298.65,309V295.17A13.86,13.86,0,0,0,284.79,309Z" transform="translate(-210.77 -209.19)"/><path id="_パス_11" data-name="&lt;パス&gt;" class="cls-2" d="M281.32,309v13.86A13.86,13.86,0,0,1,267.47,309V295.17A13.86,13.86,0,0,1,281.32,309Z" transform="translate(-210.77 -209.19)"/><path id="_パス_12" data-name="&lt;パス&gt;" class="cls-2" d="M284.79,281.73v13.86a13.86,13.86,0,0,0,13.86-13.86V267.87A13.86,13.86,0,0,0,284.79,281.73Z" transform="translate(-210.77 -209.19)"/><path id="_パス_13" data-name="&lt;パス&gt;" class="cls-2" d="M281.32,281.73v13.86a13.86,13.86,0,0,1-13.86-13.86V267.87A13.86,13.86,0,0,1,281.32,281.73Z" transform="translate(-210.77 -209.19)"/></g></svg>