<?xml version="1.0" encoding="utf-8"?>
<!-- Generator: Adobe Illustrator 23.1.0, SVG Export Plug-In . SVG Version: 6.00 Build 0)  -->
<svg version="1.1" xmlns="http://www.w3.org/2000/svg" xmlns:xlink="http://www.w3.org/1999/xlink" x="0px" y="0px"
	 viewBox="0 0 640 640" style="enable-background:new 0 0 640 640;" xml:space="preserve">
<style type="text/css">
	.st0{fill:#1976d2;}
</style>
<g id="レイヤー_2">
	<g>
		<path class="st0" d="M466,319.95c-2.67,0-5.43-0.15-8.21-0.45l-147.74,0c-3.58,0.3-7.11,0.45-10.55,0.45s-6.97-0.15-10.51-0.45
			l-106.73,0c-2.83,0.3-5.59,0.45-8.26,0.45c-41.63,0-75.5-33.87-75.5-75.5s33.87-75.5,75.5-75.5c6.89,0,13.76,0.95,20.43,2.82
			l0.41,0.11l0.18-0.38c18.17-38.61,59.18-63.55,104.48-63.55c26.25,0,51.87,8.5,72.14,23.93c19.99,15.21,33.95,36.44,39.33,59.79
			l0.21,0.9l0.64-0.66c14.36-14.8,33.6-22.95,54.19-22.95c41.63,0,75.5,33.87,75.5,75.5S507.63,319.95,466,319.95z"/>
		<path d="M299.5,108.45c26.14,0,51.65,8.46,71.84,23.82c19.89,15.14,33.79,36.27,39.14,59.5l0.41,1.79l1.28-1.32
			c14.26-14.7,33.38-22.8,53.83-22.8c41.36,0,75,33.64,75,75s-33.64,75-75,75c-2.65,0-5.4-0.15-8.15-0.45L457.8,319h-0.05H310.05
			h-0.04l-0.04,0c-3.52,0.3-7.04,0.45-10.47,0.45s-6.95-0.15-10.47-0.45l-0.04,0h-0.04H182.26h-0.05l-0.05,0.01
			c-2.75,0.3-5.5,0.45-8.15,0.45c-41.36,0-75-33.64-75-75s33.64-75,75-75c6.84,0,13.67,0.94,20.3,2.8l0.81,0.23l0.36-0.77
			C213.56,133.29,254.39,108.45,299.5,108.45 M299.5,107.45c-46.93,0-87.25,26.26-104.93,63.84c-6.54-1.84-13.44-2.84-20.57-2.84
			c-41.97,0-76,34.03-76,76s34.03,76,76,76c2.79,0,5.54-0.16,8.26-0.45h106.69c3.48,0.3,6.99,0.45,10.55,0.45s7.08-0.16,10.55-0.45
			h147.69c2.71,0.29,5.47,0.45,8.26,0.45c41.97,0,76-34.03,76-76s-34.03-76-76-76c-21.41,0-40.73,8.86-54.54,23.1
			C400.39,143.49,354.48,107.45,299.5,107.45L299.5,107.45z"/>
	</g>
	<g>
		<path class="st0" d="M204,399.46c-10.75,0-19.5-8.75-19.5-19.5c0-2.28,0.41-4.56,1.23-6.76c0.12-0.63,0.3-1.14,0.56-1.59
			l13.75-23.82c0.82-1.42,2.28-2.26,3.92-2.26s3.1,0.85,3.92,2.26l12.23,21.18c0.47,0.69,0.9,1.44,1.34,2.32l0.19,0.32
			c0.15,0.26,0.28,0.56,0.39,0.9c0.99,2.4,1.48,4.9,1.48,7.45C223.5,390.71,214.75,399.46,204,399.46z"/>
		<path d="M203.96,346.03c1.45,0,2.76,0.75,3.48,2.01l12.23,21.18l0.02,0.03l0.02,0.03c0.44,0.64,0.86,1.37,1.28,2.23l0.01,0.03
			l0.02,0.03l0.17,0.3c0.13,0.23,0.24,0.49,0.35,0.8l0.01,0.04l0.02,0.04c0.95,2.31,1.43,4.74,1.43,7.23c0,10.48-8.52,19-19,19
			s-19-8.52-19-19c0-2.22,0.4-4.44,1.2-6.59l0.03-0.09l0.02-0.09c0.08-0.48,0.24-0.93,0.48-1.34l13.75-23.82
			C201.2,346.78,202.51,346.03,203.96,346.03 M203.96,345.03c-1.69,0-3.38,0.84-4.35,2.51l-13.75,23.82
			c-0.31,0.54-0.5,1.11-0.6,1.67c-0.8,2.16-1.26,4.49-1.26,6.93c0,11.05,8.95,20,20,20s20-8.95,20-20c0-2.69-0.54-5.26-1.51-7.61
			c-0.11-0.34-0.24-0.67-0.43-1l-0.17-0.3c-0.4-0.81-0.85-1.6-1.35-2.34l-12.23-21.18C207.34,345.86,205.65,345.03,203.96,345.03
			L203.96,345.03z"/>
	</g>
	<g>
		<path class="st0" d="M243.53,464.84c-10.75,0-19.5-8.75-19.5-19.5c0-2.28,0.41-4.56,1.23-6.76c0.12-0.63,0.3-1.14,0.56-1.59
			l13.75-23.82c0.82-1.42,2.28-2.26,3.92-2.26s3.1,0.85,3.92,2.26l12.23,21.18c0.47,0.69,0.9,1.44,1.34,2.32l0.19,0.32
			c0.15,0.26,0.28,0.56,0.39,0.9c0.99,2.4,1.48,4.9,1.48,7.45C263.03,456.09,254.28,464.84,243.53,464.84z"/>
		<path d="M243.49,411.41c1.45,0,2.76,0.75,3.48,2.01l12.23,21.18l0.02,0.03l0.02,0.03c0.44,0.64,0.86,1.37,1.29,2.23l0.01,0.03
			l0.02,0.03l0.17,0.3c0.13,0.23,0.24,0.49,0.35,0.8l0.01,0.04l0.02,0.04c0.95,2.31,1.43,4.74,1.43,7.23c0,10.48-8.52,19-19,19
			s-19-8.52-19-19c0-2.22,0.4-4.44,1.2-6.59l0.03-0.09l0.02-0.09c0.08-0.48,0.24-0.93,0.48-1.34l13.75-23.82
			C240.73,412.16,242.04,411.41,243.49,411.41 M243.49,410.41c-1.69,0-3.38,0.84-4.35,2.51l-13.75,23.82
			c-0.31,0.54-0.5,1.11-0.6,1.67c-0.8,2.16-1.26,4.49-1.26,6.93c0,11.05,8.95,20,20,20s20-8.95,20-20c0-2.69-0.54-5.26-1.51-7.61
			c-0.11-0.34-0.24-0.67-0.43-1l-0.17-0.3c-0.4-0.81-0.85-1.6-1.35-2.34l-12.23-21.18C246.88,411.24,245.18,410.41,243.49,410.41
			L243.49,410.41z"/>
	</g>
	<g>
		<path class="st0" d="M294.53,399.84c-10.75,0-19.5-8.75-19.5-19.5c0-2.28,0.41-4.56,1.23-6.76c0.12-0.63,0.3-1.14,0.56-1.59
			l13.75-23.82c0.82-1.42,2.28-2.26,3.92-2.26s3.1,0.85,3.92,2.26l12.23,21.18c0.47,0.69,0.9,1.44,1.34,2.32l0.19,0.32
			c0.15,0.26,0.28,0.56,0.39,0.9c0.99,2.4,1.48,4.9,1.48,7.45C314.03,391.09,305.28,399.84,294.53,399.84z"/>
		<path d="M294.49,346.41c1.45,0,2.76,0.75,3.48,2.01l12.23,21.18l0.02,0.03l0.02,0.03c0.44,0.64,0.86,1.37,1.28,2.23l0.01,0.03
			l0.02,0.03l0.17,0.3c0.13,0.23,0.24,0.49,0.35,0.8l0.01,0.04l0.02,0.04c0.95,2.31,1.43,4.74,1.43,7.23c0,10.48-8.52,19-19,19
			s-19-8.52-19-19c0-2.22,0.4-4.44,1.2-6.59l0.03-0.09l0.02-0.09c0.08-0.48,0.24-0.93,0.48-1.34l13.75-23.82
			C291.73,347.16,293.04,346.41,294.49,346.41 M294.49,345.41c-1.69,0-3.38,0.84-4.35,2.51l-13.75,23.82
			c-0.31,0.54-0.5,1.11-0.6,1.67c-0.8,2.16-1.26,4.49-1.26,6.93c0,11.05,8.95,20,20,20s20-8.95,20-20c0-2.69-0.54-5.26-1.51-7.61
			c-0.11-0.34-0.24-0.67-0.43-1l-0.17-0.3c-0.4-0.81-0.85-1.6-1.35-2.34l-12.23-21.18C297.88,346.24,296.18,345.41,294.49,345.41
			L294.49,345.41z"/>
	</g>
	<g>
		<path class="st0" d="M347.53,444.84c-10.75,0-19.5-8.75-19.5-19.5c0-2.28,0.41-4.56,1.23-6.76c0.12-0.63,0.3-1.14,0.56-1.59
			l13.75-23.82c0.82-1.42,2.28-2.26,3.92-2.26s3.1,0.85,3.92,2.26l12.23,21.18c0.47,0.69,0.9,1.44,1.34,2.32l0.19,0.32
			c0.15,0.26,0.28,0.56,0.39,0.9c0.99,2.4,1.48,4.9,1.48,7.45C367.03,436.09,358.28,444.84,347.53,444.84z"/>
		<path d="M347.49,391.41c1.45,0,2.76,0.75,3.48,2.01l12.23,21.18l0.02,0.03l0.02,0.03c0.44,0.64,0.86,1.37,1.28,2.23l0.01,0.03
			l0.02,0.03l0.17,0.3c0.13,0.23,0.24,0.49,0.35,0.8l0.01,0.04l0.02,0.04c0.95,2.31,1.43,4.74,1.43,7.23c0,10.48-8.52,19-19,19
			s-19-8.52-19-19c0-2.22,0.4-4.44,1.2-6.59l0.03-0.09l0.02-0.09c0.08-0.48,0.24-0.93,0.48-1.34l13.75-23.82
			C344.73,392.16,346.04,391.41,347.49,391.41 M347.49,390.41c-1.69,0-3.38,0.84-4.35,2.51l-13.75,23.82
			c-0.31,0.54-0.5,1.11-0.6,1.67c-0.8,2.16-1.26,4.49-1.26,6.93c0,11.05,8.95,20,20,20s20-8.95,20-20c0-2.69-0.54-5.26-1.51-7.61
			c-0.11-0.34-0.24-0.67-0.43-1l-0.17-0.3c-0.4-0.81-0.85-1.6-1.35-2.34l-12.23-21.18C350.88,391.24,349.18,390.41,347.49,390.41
			L347.49,390.41z"/>
	</g>
	<g>
		<path class="st0" d="M410.53,471.84c-10.75,0-19.5-8.75-19.5-19.5c0-2.28,0.41-4.56,1.23-6.76c0.12-0.63,0.3-1.14,0.56-1.59
			l13.75-23.82c0.82-1.42,2.28-2.26,3.92-2.26s3.1,0.85,3.92,2.26l12.23,21.18c0.47,0.69,0.9,1.44,1.34,2.32l0.19,0.32
			c0.15,0.26,0.28,0.56,0.39,0.9c0.99,2.4,1.48,4.9,1.48,7.45C430.03,463.09,421.28,471.84,410.53,471.84z"/>
		<path d="M410.49,418.41c1.45,0,2.76,0.75,3.48,2.01l12.23,21.18l0.02,0.03l0.02,0.03c0.44,0.64,0.86,1.37,1.28,2.23l0.01,0.03
			l0.02,0.03l0.17,0.3c0.13,0.23,0.24,0.49,0.35,0.8l0.01,0.04l0.02,0.04c0.95,2.31,1.43,4.74,1.43,7.23c0,10.48-8.52,19-19,19
			s-19-8.52-19-19c0-2.22,0.4-4.44,1.2-6.59l0.03-0.09l0.02-0.09c0.08-0.48,0.24-0.93,0.48-1.34l13.75-23.82
			C407.73,419.16,409.04,418.41,410.49,418.41 M410.49,417.41c-1.69,0-3.38,0.84-4.35,2.51l-13.75,23.82
			c-0.31,0.54-0.5,1.11-0.6,1.67c-0.8,2.16-1.26,4.49-1.26,6.93c0,11.05,8.95,20,20,20s20-8.95,20-20c0-2.69-0.54-5.26-1.51-7.61
			c-0.11-0.34-0.24-0.67-0.43-1l-0.17-0.3c-0.4-0.81-0.85-1.6-1.35-2.34l-12.23-21.18C413.88,418.24,412.18,417.41,410.49,417.41
			L410.49,417.41z"/>
	</g>
	<g>
		<path class="st0" d="M450.53,399.84c-10.75,0-19.5-8.75-19.5-19.5c0-2.28,0.41-4.56,1.23-6.76c0.12-0.63,0.3-1.14,0.56-1.59
			l13.75-23.82c0.82-1.42,2.28-2.26,3.92-2.26s3.1,0.85,3.92,2.26l12.23,21.18c0.47,0.69,0.9,1.44,1.34,2.32l0.19,0.32
			c0.15,0.26,0.28,0.56,0.39,0.9c0.99,2.4,1.48,4.9,1.48,7.45C470.03,391.09,461.28,399.84,450.53,399.84z"/>
		<path d="M450.49,346.41c1.45,0,2.76,0.75,3.48,2.01l12.23,21.18l0.02,0.03l0.02,0.03c0.44,0.64,0.86,1.37,1.28,2.23l0.01,0.03
			l0.02,0.03l0.17,0.3c0.13,0.23,0.24,0.49,0.35,0.8l0.01,0.04l0.02,0.04c0.95,2.31,1.43,4.74,1.43,7.23c0,10.48-8.52,19-19,19
			s-19-8.52-19-19c0-2.22,0.4-4.44,1.2-6.59l0.03-0.09l0.02-0.09c0.08-0.48,0.24-0.93,0.48-1.34l13.75-23.82
			C447.73,347.16,449.04,346.41,450.49,346.41 M450.49,345.41c-1.69,0-3.38,0.84-4.35,2.51l-13.75,23.82
			c-0.31,0.54-0.5,1.11-0.6,1.67c-0.8,2.16-1.26,4.49-1.26,6.93c0,11.05,8.95,20,20,20s20-8.95,20-20c0-2.69-0.54-5.26-1.51-7.61
			c-0.11-0.34-0.24-0.67-0.43-1l-0.17-0.3c-0.4-0.81-0.85-1.6-1.35-2.34l-12.23-21.18C453.88,346.24,452.18,345.41,450.49,345.41
			L450.49,345.41z"/>
	</g>
</g>
</svg>
