<?xml version="1.0" encoding="utf-8"?>
<!-- Generator: Adobe Illustrator 23.1.0, SVG Export Plug-In . SVG Version: 6.00 Build 0)  -->
<svg version="1.1" xmlns="http://www.w3.org/2000/svg" xmlns:xlink="http://www.w3.org/1999/xlink" x="0px" y="0px"
	 viewBox="0 0 640 640" style="enable-background:new 0 0 640 640;" xml:space="preserve">
<style type="text/css">
	.st0{fill:#d32f2f;}
</style>
<g id="レイヤー_1">
	<g>
		<ellipse class="st0" cx="330" cy="330" rx="149.5" ry="136"/>
		<path d="M330,194.5c39.82,0,77.25,14.11,105.39,39.72C463.51,259.81,479,293.82,479,330s-15.49,70.19-43.61,95.78
			C407.25,451.39,369.82,465.5,330,465.5s-77.25-14.11-105.39-39.72C196.49,400.19,181,366.18,181,330s15.49-70.19,43.61-95.78
			C252.75,208.61,290.18,194.5,330,194.5 M330,193.5c-82.84,0-150,61.11-150,136.5s67.16,136.5,150,136.5S480,405.39,480,330
			S412.84,193.5,330,193.5L330,193.5z"/>
	</g>
	<g>
		<polygon class="st0" points="287.56,150.5 330,77 372.44,150.5 		"/>
		<path d="M330,78l41.57,72h-83.14L330,78 M330,76l-43.3,75h86.6L330,76L330,76z"/>
	</g>
	<g>
		<polygon class="st0" points="287.56,509.5 372.44,509.5 330,583 		"/>
		<path d="M371.57,510L330,582l-41.57-72H371.57 M373.3,509h-86.6l43.3,75L373.3,509L373.3,509z"/>
	</g>
	<g>
		<polygon class="st0" points="75.34,329.41 148.84,286.98 148.84,371.85 		"/>
		<path d="M148.34,287.84l0,83.14l-72-41.57L148.34,287.84 M149.34,286.11l-75,43.3l75,43.3L149.34,286.11L149.34,286.11z"/>
	</g>
	<g>
		<polygon class="st0" points="507.84,286.98 581.34,329.41 507.84,371.85 		"/>
		<path d="M508.34,287.84l72,41.57l-72,41.57V287.84 M507.34,286.11v86.6l75-43.3L507.34,286.11L507.34,286.11z"/>
	</g>
	<g>
		<polygon class="st0" points="147.44,150.51 229.42,172.48 169.41,232.49 		"/>
		<path d="M148.15,151.22l80.31,21.52l-58.79,58.79L148.15,151.22 M146.74,149.81l22.41,83.65l61.24-61.24L146.74,149.81
			L146.74,149.81z"/>
	</g>
	<g>
		<polygon class="st0" points="423.26,486.34 483.27,426.33 505.24,508.31 		"/>
		<path d="M483.02,427.3l21.52,80.31l-80.31-21.52L483.02,427.3 M483.53,425.37L422.3,486.6l83.65,22.41L483.53,425.37
			L483.53,425.37z"/>
	</g>
	<g>
		<polygon class="st0" points="169.41,426.33 229.42,486.34 147.44,508.31 		"/>
		<path d="M169.67,427.3l58.79,58.79l-80.31,21.52L169.67,427.3 M169.15,425.37l-22.41,83.65l83.65-22.41L169.15,425.37
			L169.15,425.37z"/>
	</g>
	<g>
		<polygon class="st0" points="423.26,172.48 505.24,150.51 483.27,232.49 		"/>
		<path d="M504.53,151.22l-21.52,80.31l-58.79-58.79L504.53,151.22 M505.95,149.81l-83.65,22.41l61.24,61.24L505.95,149.81
			L505.95,149.81z"/>
	</g>
</g>
</svg>
