<svg id="レイヤー_1" data-name="レイヤー 1" xmlns="http://www.w3.org/2000/svg" viewBox="0 0 141.73 141.73"><defs><style>.cls-1{fill:#231815;}.cls-2{fill:#689f38;}</style></defs><title>agryeel_icon_R_04</title><g id="_グループ_" data-name="&lt;グループ&gt;"><path id="_パス_" data-name="&lt;パス&gt;" class="cls-2" d="M255.68,294.89a6.54,6.54,0,0,0-5.67,9.82A6.54,6.54,0,0,0,255.68,294.89Z" transform="translate(-210.77 -209.19)"/><path id="_パス_2" data-name="&lt;パス&gt;" class="cls-2" d="M257.75,314a6.54,6.54,0,0,0-9.82,5.67A6.54,6.54,0,0,0,257.75,314Z" transform="translate(-210.77 -209.19)"/><path id="_パス_3" data-name="&lt;パス&gt;" class="cls-2" d="M258.51,333.82a6.54,6.54,0,0,0-11.34,0A6.54,6.54,0,0,0,258.51,333.82Z" transform="translate(-210.77 -209.19)"/><path id="_パス_4" data-name="&lt;パス&gt;" class="cls-2" d="M233,294.89a6.54,6.54,0,0,0-5.67,9.82A6.54,6.54,0,0,0,233,294.89Z" transform="translate(-210.77 -209.19)"/><path id="_パス_5" data-name="&lt;パス&gt;" class="cls-2" d="M235.07,314a6.54,6.54,0,0,0-9.82,5.67A6.54,6.54,0,0,0,235.07,314Z" transform="translate(-210.77 -209.19)"/><path id="_パス_6" data-name="&lt;パス&gt;" class="cls-2" d="M235.83,333.82a6.54,6.54,0,0,0-11.34,0A6.54,6.54,0,0,0,235.83,333.82Z" transform="translate(-210.77 -209.19)"/><path id="_パス_7" data-name="&lt;パス&gt;" class="cls-2" d="M280.43,314a6.54,6.54,0,0,0-9.82,5.67A6.54,6.54,0,0,0,280.43,314Z" transform="translate(-210.77 -209.19)"/><path id="_パス_8" data-name="&lt;パス&gt;" class="cls-2" d="M281.19,333.82a6.54,6.54,0,0,0-11.34,0A6.54,6.54,0,0,0,281.19,333.82Z" transform="translate(-210.77 -209.19)"/><path id="_パス_9" data-name="&lt;パス&gt;" class="cls-2" d="M303.86,333.82a6.54,6.54,0,0,0-11.34,0A6.54,6.54,0,0,0,303.86,333.82Z" transform="translate(-210.77 -209.19)"/><path id="_パス_10" data-name="&lt;パス&gt;" class="cls-2" d="M306.36,218.84a15.31,15.31,0,0,1,20.91,5.6L342.57,251a15.31,15.31,0,0,1-5.6,20.91l-24.3,14h0l-27.66,16a5.1,5.1,0,0,1-5.1-8.84l27.66-16h0a1.28,1.28,0,0,0-1.28-2.21l-32.08,18.52a5.1,5.1,0,0,1-5.1-8.84L301.19,266h0a1.28,1.28,0,0,0-1.28-2.21l-36.49,21.07a5.1,5.1,0,0,1-5.1-8.84L294.81,255h0a1.28,1.28,0,0,0-1.28-2.21h0l-32.07,18.52a5.1,5.1,0,0,1-5.1-8.84l32.08-18.52h0L303.89,235h0a1.28,1.28,0,0,0-1.28-2.21l-15.39,8.88a10.2,10.2,0,0,1-13.94-3.74l8.84-5.1,24.23-14h0Z" transform="translate(-210.77 -209.19)"/></g></svg>