<svg id="レイヤー_1" data-name="レイヤー 1" xmlns="http://www.w3.org/2000/svg" viewBox="0 0 141.73 141.73"><defs><style>.cls-1{fill:#231815;}.cls-2{fill:#f57c00;}</style></defs><title>agryeel_icon_R_07</title><rect id="_長方形_2" data-name="&lt;長方形&gt;" class="cls-2" x="55.28" y="14.17" width="31.18" height="4.25" rx="2.13" ry="2.13"/><path id="_複合パス_" data-name="&lt;複合パス&gt;" class="cls-2" d="M329,317.07l-19-34.18-15.58-28a11.34,11.34,0,0,1-1.43-5.51V230.45H270.3v18.89a11.34,11.34,0,0,1-1.43,5.51l-15.58,28-19,34.18a11.34,11.34,0,0,0,9.91,16.85h74.85A11.34,11.34,0,0,0,329,317.07Zm-56.38-60.16a15.64,15.64,0,0,0,2-7.57V234.7h14.17v14.64a15.62,15.62,0,0,0,2,7.57L313,297.06H250.28Z" transform="translate(-210.77 -209.19)"/></svg>