<?xml version="1.0" standalone="no"?>
<!DOCTYPE svg PUBLIC "-//W3C//DTD SVG 1.1//EN" "http://www.w3.org/Graphics/SVG/1.1/DTD/svg11.dtd" >
<svg xmlns="http://www.w3.org/2000/svg">
<metadata>Generated by IcoMoon</metadata>
<defs>
<font id="icomoon" horiz-adv-x="1024">
<font-face units-per-em="1024" ascent="960" descent="-64" />
<missing-glyph horiz-adv-x="1024" />
<glyph unicode="&#x20;" horiz-adv-x="512" d="" />
<glyph unicode="&#xe900;" d="M0 960h1024v-1024h-1024v1024z" />
<glyph unicode="&#xe901;" d="M887.158 580.543l-443.399 255.982c-7.335 4.278-16.147 6.804-25.548 6.804-18.845 0-35.321-10.148-44.259-25.277l-56.486-97.777 532.122-307.207 56.355 97.538c4.267 7.328 6.786 16.128 6.786 25.517 0 18.867-10.172 35.359-25.33 44.29z" />
<glyph unicode="&#xe902;" d="M803.637 415.813l-70.95 40.894-35.258 20.591-390.367 225.131-225.276-390.223c5.865-3.435 12.915-5.463 20.439-5.463 15.087 0 28.268 8.155 35.378 20.298l0.105 0.193 153.676 266.169c3.604 6.17 10.194 10.249 17.737 10.249 11.307 0 20.473-9.166 20.473-20.473 0-3.764-1.016-7.29-2.788-10.32l-174.070-301.619c5.865-3.435 12.915-5.463 20.439-5.463 15.087 0 28.268 8.155 35.378 20.298l0.105 0.193 153.676 266.169c3.604 6.17 10.194 10.249 17.737 10.249 11.307 0 20.473-9.166 20.473-20.473 0-3.764-1.016-7.29-2.788-10.32l-174.070-301.619c5.865-3.435 12.915-5.463 20.439-5.463 15.087 0 28.268 8.155 35.378 20.298l0.105 0.193 153.676 266.169c3.604 6.17 10.194 10.249 17.737 10.249 11.307 0 20.473-9.166 20.473-20.473 0-3.764-1.016-7.29-2.788-10.32l-174.070-301.547c5.865-3.435 12.915-5.463 20.439-5.463 15.087 0 28.268 8.155 35.378 20.298l0.105 0.193 153.676 266.169c3.604 6.17 10.194 10.249 17.737 10.249 11.307 0 20.473-9.166 20.473-20.473 0-3.764-1.016-7.29-2.788-10.32l-173.854-301.547c5.865-3.435 12.915-5.463 20.439-5.463 15.087 0 28.268 8.155 35.378 20.298l0.105 0.193 153.676 266.169c3.604 6.17 10.194 10.249 17.737 10.249 11.307 0 20.473-9.166 20.473-20.473 0-3.764-1.016-7.29-2.788-10.32l-174.432-301.619c5.981-3.612 13.204-5.748 20.927-5.748 15.202 0 28.47 8.281 35.54 20.577l0.106 0.199 153.676 266.169c3.604 6.17 10.194 10.249 17.737 10.249 11.307 0 20.473-9.166 20.473-20.473 0-3.764-1.016-7.29-2.788-10.32l-153.624-266.072-21.025-35.547c5.865-3.435 12.915-5.463 20.439-5.463 15.087 0 28.268 8.155 35.378 20.298l0.105 0.193 153.604 266.169c3.604 6.17 10.194 10.249 17.737 10.249 11.307 0 20.473-9.166 20.473-20.473 0-3.764-1.016-7.29-2.788-10.32l-174.070-301.619c5.865-3.435 12.915-5.463 20.439-5.463 15.087 0 28.268 8.155 35.378 20.298l0.105 0.193 204.829 354.748-35.403 20.447z" />
<glyph unicode="&#xe903;" d="M711.157 705.824l146.74 254.176h-94.575l-123.114-213.21 70.95-40.966z" />
<glyph unicode="&#xe904;" d="M0 960h1024v-1024h-1024v1024z" />
<glyph unicode="&#xe905;" d="M224.409 227.095c0-16.959-13.748-30.706-30.706-30.706s-30.706 13.748-30.706 30.706c0 16.959 13.748 30.706 30.706 30.706s30.706-13.748 30.706-30.706z" />
<glyph unicode="&#xe906;" d="M353.664 227.095c0-16.959-13.748-30.706-30.706-30.706s-30.706 13.748-30.706 30.706c0 16.959 13.748 30.706 30.706 30.706s30.706-13.748 30.706-30.706z" />
<glyph unicode="&#xe907;" d="M482.992 227.095c0-16.959-13.748-30.706-30.706-30.706s-30.706 13.748-30.706 30.706c0 16.959 13.748 30.706 30.706 30.706s30.706-13.748 30.706-30.706z" />
<glyph unicode="&#xe908;" d="M159.745 148.126c0-16.959-13.748-30.706-30.706-30.706s-30.706 13.748-30.706 30.706c0 16.959 13.748 30.706 30.706 30.706s30.706-13.748 30.706-30.706z" />
<glyph unicode="&#xe909;" d="M289 148.126c0-16.959-13.748-30.706-30.706-30.706s-30.706 13.748-30.706 30.706c0 16.959 13.748 30.706 30.706 30.706s30.706-13.748 30.706-30.706z" />
<glyph unicode="&#xe90a;" d="M418.328 148.126c0-16.959-13.748-30.706-30.706-30.706s-30.706 13.748-30.706 30.706c0 16.959 13.748 30.706 30.706 30.706s30.706-13.748 30.706-30.706z" />
<glyph unicode="&#xe90b;" d="M547.655 148.126c0-16.959-13.748-30.706-30.706-30.706s-30.706 13.748-30.706 30.706c0 16.959 13.748 30.706 30.706 30.706s30.706-13.748 30.706-30.706z" />
<glyph unicode="&#xe90c;" d="M159.745 69.085c0-16.959-13.748-30.706-30.706-30.706s-30.706 13.748-30.706 30.706c0 16.959 13.748 30.706 30.706 30.706s30.706-13.748 30.706-30.706z" />
<glyph unicode="&#xe90d;" d="M224.409 69.085c0-16.959-13.748-30.706-30.706-30.706s-30.706 13.748-30.706 30.706c0 16.959 13.748 30.706 30.706 30.706s30.706-13.748 30.706-30.706z" />
<glyph unicode="&#xe90e;" d="M289 69.085c0-16.959-13.748-30.706-30.706-30.706s-30.706 13.748-30.706 30.706c0 16.959 13.748 30.706 30.706 30.706s30.706-13.748 30.706-30.706z" />
<glyph unicode="&#xe90f;" d="M353.664 69.085c0-16.959-13.748-30.706-30.706-30.706s-30.706 13.748-30.706 30.706c0 16.959 13.748 30.706 30.706 30.706s30.706-13.748 30.706-30.706z" />
<glyph unicode="&#xe910;" d="M418.328 69.085c0-16.959-13.748-30.706-30.706-30.706s-30.706 13.748-30.706 30.706c0 16.959 13.748 30.706 30.706 30.706s30.706-13.748 30.706-30.706z" />
<glyph unicode="&#xe911;" d="M482.992 69.085c0-16.959-13.748-30.706-30.706-30.706s-30.706 13.748-30.706 30.706c0 16.959 13.748 30.706 30.706 30.706s30.706-13.748 30.706-30.706z" />
<glyph unicode="&#xe912;" d="M547.655 69.085c0-16.959-13.748-30.706-30.706-30.706s-30.706 13.748-30.706 30.706c0 16.959 13.748 30.706 30.706 30.706s30.706-13.748 30.706-30.706z" />
<glyph unicode="&#xe913;" d="M612.319 69.085c0-16.959-13.748-30.706-30.706-30.706s-30.706 13.748-30.706 30.706c0 16.959 13.748 30.706 30.706 30.706s30.706-13.748 30.706-30.706z" />
<glyph unicode="&#xe914;" d="M676.983 69.085c0-16.959-13.748-30.706-30.706-30.706s-30.706 13.748-30.706 30.706c0 16.959 13.748 30.706 30.706 30.706s30.706-13.748 30.706-30.706z" />
<glyph unicode="&#xe915;" d="M530.099 272.468l399.037 230.405-221.157 382.925-478.873-276.284 152.809-264.724c6.15 0.909 13.248 1.427 20.468 1.427 54.302 0 101.748-29.351 127.34-73.053z" />
<glyph unicode="&#xe916;" d="M213.138 600.122l-15.967-9.248 148.040-256.415c4.742 2.1 10.623 4.217 16.663 5.958z" />
<glyph unicode="&#xe917;" d="M723.942 895.176l15.955 9.212 221.194-383.118-15.955-9.212-221.194 383.118z" />
<glyph unicode="&#xe918;" d="M0 960h1024v-1024h-1024v1024z" />
<glyph unicode="&#xe919;" d="M644.687 581.121v133.157c0 0 0 0 0 0-22.625 0-40.966-18.341-40.966-40.966v0-92.191h40.966z" />
<glyph unicode="&#xe91a;" d="M297.020 540.155c-113.124 0-204.829-91.705-204.829-204.829s91.705-204.829 204.829-204.829c113.124 0 204.829 91.705 204.829 204.829s-91.705 204.829-204.829 204.829c0 0 0 0 0 0zM297.020 232.948c-0.107 0-0.234-0.001-0.361-0.001-56.542 0-102.378 45.836-102.378 102.378s45.836 102.378 102.378 102.378c56.516 0 102.337-45.795 102.378-102.301-0.040-56.417-45.638-102.168-101.99-102.454z" />
<glyph unicode="&#xe91b;" d="M798.724 396.811c-73.54 0-133.157-59.616-133.157-133.157s59.616-133.157 133.157-133.157c73.54 0 133.157 59.616 133.157 133.157s-59.616 133.157-133.157 133.157c0 0 0 0 0 0zM798.724 191.982c-39.583 0-71.672 32.089-71.672 71.672s32.089 71.672 71.672 71.672c39.583 0 71.672-32.089 71.672-71.672-0.041-39.567-32.105-71.631-71.668-71.672z" />
<glyph unicode="&#xe91c;" d="M798.724 417.33c0.001 0 0.002 0 0.003 0 34.803 0 66.884-11.651 92.557-31.266l-0.369 92.678c0 45.25-36.682 81.932-81.932 81.932h-252.875c-19.786 0.001-36.295 14.029-40.126 32.682l-27.862 139.201c-3.876 18.917-20.385 32.945-40.171 32.946h-191.896c-22.625 0-40.966-18.341-40.966-40.966v-179.325c24.338 9.815 52.56 15.508 82.112 15.508 124.337 0 225.131-100.795 225.131-225.131 0-29.611-5.717-57.886-16.106-83.783l139.401 1.516c0 3.396-0.506 6.792-0.506 10.26 0 0 0 0 0 0 0 84.862 68.753 153.666 153.596 153.748zM422.302 611.899h-125.282c-16.959 0-30.706 13.748-30.706 30.706v40.966c0 16.959 13.748 30.706 30.706 30.706h117.19c0.004 0 0.009 0 0.013 0 14.837 0 27.215-10.522 30.081-24.512l8.198-41.164c0.385-1.825 0.606-3.921 0.606-6.069 0-16.959-13.748-30.706-30.706-30.706-0.010 0-0.020 0-0.029 0z" />
<glyph unicode="&#xe91d;" d="M297.020 253.322c81.932 81.932 81.932 81.932 81.932 81.932-0.041-45.233-36.699-81.89-81.928-81.932z" />
<glyph unicode="&#xe91e;" d="M849.95 263.654c0-28.291-22.934-51.225-51.225-51.225s-51.225 22.934-51.225 51.225c0 28.291 22.934 51.225 51.225 51.225s51.225-22.934 51.225-51.225z" />
<glyph unicode="&#xe91f;" d="M818.665 451.143h-30.706c0 0 0 0 0 0-22.625 0-40.966 18.341-40.966 40.966s18.341 40.966 40.966 40.966c0 0 0 0 0 0h30.706c0 0 0 0 0 0 22.625 0 40.966-18.341 40.966-40.966s-18.341-40.966-40.966-40.966c0 0 0 0 0 0z" />
<glyph unicode="&#xe920;" d="M787.959 512.555h30.706c0 0 0 0 0 0 11.312 0 20.483-9.171 20.483-20.483s-9.171-20.483-20.483-20.483c0 0 0 0 0 0h-30.706c0 0 0 0 0 0-11.312 0-20.483 9.171-20.483 20.483s9.171 20.483 20.483 20.483c0 0 0 0 0 0z" />
<glyph unicode="&#xe921;" d="M0 960h1024v-1024h-1024v1024z" />
<glyph unicode="&#xe922;" d="M324.475 340.817c-0.026 0-0.056 0-0.087 0-26.096 0-47.252-21.155-47.252-47.252 0-8.728 2.366-16.904 6.493-23.92-0.095 0.221-0.064 0.221-0.034 0.221 26.096 0 47.252 21.155 47.252 47.252 0 8.728-2.366 16.904-6.493 23.92z" />
<glyph unicode="&#xe923;" d="M339.431 202.747c-6.795 4.006-14.97 6.372-23.698 6.372-26.096 0-47.252-21.155-47.252-47.252 0-0.030 0-0.061 0-0.091 6.795-4.001 14.97-6.368 23.698-6.368 26.096 0 47.252 21.155 47.252 47.252 0 0.030 0 0.061 0 0.091z" />
<glyph unicode="&#xe924;" d="M344.922 59.548c-8.312 14.267-23.537 23.703-40.966 23.703s-32.654-9.436-40.845-23.479c8.191-14.492 23.416-23.928 40.845-23.928s32.654 9.436 40.845 23.479z" />
<glyph unicode="&#xe925;" d="M160.612 340.817c-0.026 0-0.056 0-0.087 0-26.096 0-47.252-21.155-47.252-47.252 0-8.728 2.366-16.904 6.493-23.92-0.095 0.221-0.064 0.221-0.034 0.221 26.096 0 47.252 21.155 47.252 47.252 0 8.728-2.366 16.904-6.493 23.92z" />
<glyph unicode="&#xe926;" d="M175.568 202.747c-6.795 4.006-14.97 6.372-23.698 6.372-26.096 0-47.252-21.155-47.252-47.252 0-0.030 0-0.061 0-0.091 6.795-4.001 14.97-6.368 23.698-6.368 26.096 0 47.252 21.155 47.252 47.252 0 0.030 0 0.061 0 0.091z" />
<glyph unicode="&#xe927;" d="M181.059 59.548c-8.312 14.267-23.537 23.703-40.966 23.703s-32.654-9.436-40.845-23.479c8.191-14.492 23.416-23.928 40.845-23.928s32.654 9.436 40.845 23.479z" />
<glyph unicode="&#xe928;" d="M503.294 202.747c-6.795 4.006-14.97 6.372-23.698 6.372-26.096 0-47.252-21.155-47.252-47.252 0-0.030 0-0.061 0-0.091 6.795-4.001 14.97-6.368 23.698-6.368 26.096 0 47.252 21.155 47.252 47.252 0 0.030 0 0.061 0 0.091z" />
<glyph unicode="&#xe929;" d="M508.785 59.548c-8.312 14.267-23.537 23.703-40.966 23.703s-32.654-9.436-40.845-23.479c8.191-14.492 23.416-23.928 40.845-23.928s32.654 9.436 40.845 23.479z" />
<glyph unicode="&#xe92a;" d="M672.576 59.548c-8.312 14.267-23.537 23.703-40.966 23.703s-32.654-9.436-40.845-23.479c8.191-14.492 23.416-23.928 40.845-23.928s32.654 9.436 40.845 23.479z" />
<glyph unicode="&#xe92b;" d="M690.638 890.279c15.863 9.314 34.939 14.814 55.299 14.814 40.714 0 76.29-21.996 95.494-54.753l110.825-192.417c9.314-15.863 14.814-34.939 14.814-55.299 0-40.714-21.996-76.29-54.753-95.494l-176.089-101.433-199.844-115.6c-5.285-3.102-11.641-4.933-18.424-4.933-20.362 0-36.868 16.506-36.868 36.868 0 13.579 7.341 25.443 18.27 31.84l200.018 115.694c2.471 1.686 4.073 4.488 4.073 7.664 0 5.108-4.14 9.248-9.248 9.248-1.483 0-2.884-0.349-4.126-0.969l-231.725-133.783c-5.285-3.102-11.641-4.933-18.424-4.933-20.362 0-36.868 16.506-36.868 36.868 0 13.579 7.341 25.443 18.27 31.84l231.952 134.046c2.471 1.686 4.073 4.488 4.073 7.664 0 5.108-4.14 9.248-9.248 9.248-1.483 0-2.884-0.349-4.126-0.969l-263.587-152.207c-5.285-3.102-11.641-4.933-18.424-4.933-20.362 0-36.868 16.506-36.868 36.868 0 13.579 7.341 25.443 18.27 31.84l263.815 151.964c2.471 1.686 4.073 4.488 4.073 7.664 0 5.108-4.14 9.248-9.248 9.248-1.483 0-2.884-0.349-4.126-0.969l0.054 0.024-231.706-133.807c-5.285-3.102-11.641-4.933-18.424-4.933-20.362 0-36.868 16.506-36.868 36.868 0 13.579 7.341 25.443 18.27 31.84l343.579 198.565c2.471 1.686 4.073 4.488 4.073 7.664 0 5.108-4.14 9.248-9.248 9.248-1.483 0-2.884-0.349-4.126-0.969l-111.139-64.134c-10.574-6.213-23.29-9.882-36.863-9.882-27.156 0-50.882 14.689-63.666 36.555l63.681 37.196 175.062 101.15z" />
<glyph unicode="&#xe92c;" d="M0 960h1024v-1024h-1024v1024z" />
<glyph unicode="&#xe92d;" d="M189.512 222.76c-8.673-0.011-17.195-0.615-25.539-1.772 69.589-9.435 125.486-55.557 148.883-117.615-27.457 16.633-61.484 27.27-97.994 27.27-42.617 0-81.849-14.493-113.037-38.818 21.077 9.016 45.102 14.077 70.31 14.077 57.321 0 108.53-26.167 142.334-67.207l59.932-0.317-0.65 1.084c-0.574 101.331-82.832 183.259-184.234 183.298z" />
<glyph unicode="&#xe92e;" d="M476.85 222.76c-8.673-0.011-17.195-0.615-25.539-1.772 69.589-9.435 125.486-55.557 148.883-117.615-27.457 16.633-61.484 27.27-97.994 27.27-42.617 0-81.849-14.493-113.037-38.818 21.077 9.016 45.102 14.077 70.31 14.077 57.321 0 108.53-26.167 142.334-67.207l59.932-0.317-0.65 1.084c-0.574 101.331-82.832 183.259-184.234 183.298z" />
<glyph unicode="&#xe92f;" d="M746.488 185.841c-6.953-0.024-13.767-0.522-20.439-1.464 55.706-7.529 100.447-44.445 119.158-94.118-21.983 13.345-49.234 21.879-78.479 21.879-34.066 0-65.427-11.58-90.362-31.017 16.926 7.272 36.226 11.356 56.48 11.356 45.895 0 86.893-20.966 113.938-53.843l47.961-0.255-0.506 0.867c-0.492 81.068-66.323 146.596-147.46 146.596-0.103 0-0.205 0-0.307 0z" />
<glyph unicode="&#xe930;" d="M606.999 599.548c11.646-6.724 15.636-21.615 8.912-33.26s-21.615-15.636-33.26-8.912c-11.646 6.724-15.636 21.615-8.912 33.26s21.615 15.636 33.26 8.912z" />
<glyph unicode="&#xe931;" d="M546.14 494.122c11.646-6.724 15.636-21.615 8.912-33.26s-21.615-15.636-33.26-8.912c-11.646 6.724-15.636 21.615-8.912 33.26s21.615 15.636 33.26 8.912z" />
<glyph unicode="&#xe932;" d="M523.965 577.228c11.646-6.724 15.636-21.615 8.912-33.26s-21.615-15.636-33.26-8.912c-11.646 6.724-15.636 21.615-8.912 33.26s21.615 15.636 33.26 8.912z" />
<glyph unicode="&#xe933;" d="M463.106 471.874c11.646-6.724 15.636-21.615 8.912-33.26s-21.615-15.636-33.26-8.912c-11.646 6.724-15.636 21.615-8.912 33.26s21.615 15.636 33.26 8.912z" />
<glyph unicode="&#xe934;" d="M440.858 554.98c11.646-6.724 15.636-21.615 8.912-33.26s-21.615-15.636-33.26-8.912c-11.646 6.724-15.636 21.615-8.912 33.26s21.615 15.636 33.26 8.912z" />
<glyph unicode="&#xe935;" d="M379.999 449.698c11.646-6.724 15.636-21.615 8.912-33.26s-21.615-15.636-33.26-8.912c-11.646 6.724-15.636 21.615-8.912 33.26s21.615 15.636 33.26 8.912z" />
<glyph unicode="&#xe936;" d="M357.751 532.733c11.646-6.724 15.636-21.615 8.912-33.26s-21.615-15.636-33.26-8.912c-11.646 6.724-15.636 21.615-8.912 33.26s21.615 15.636 33.26 8.912z" />
<glyph unicode="&#xe937;" d="M274.645 510.485c11.646-6.724 15.636-21.615 8.912-33.26s-21.615-15.636-33.26-8.912c-11.646 6.724-15.636 21.615-8.912 33.26s21.615 15.636 33.26 8.912z" />
<glyph unicode="&#xe938;" d="M629.355 516.432c11.646-6.724 15.636-21.615 8.912-33.26s-21.615-15.636-33.26-8.912c-11.646 6.724-15.636 21.615-8.912 33.26s21.615 15.636 33.26 8.912z" />
<glyph unicode="&#xe939;" d="M708.918 691.808c3.349 6.148 5.318 13.465 5.318 21.242 0 24.899-20.185 45.084-45.084 45.084-16.066 0-30.17-8.404-38.154-21.056l-11.381-19.693 78.030-45.084z" />
<glyph unicode="&#xe93a;" d="M585.754 658.754l22.542 39.044 78.025-45.048-22.542-39.044-78.025 45.048z" />
<glyph unicode="&#xe93b;" d="M485.39 388.83c11.646-6.724 15.636-21.615 8.912-33.26s-21.615-15.636-33.26-8.912c-11.646 6.724-15.636 21.615-8.912 33.26s21.615 15.636 33.26 8.912z" />
<glyph unicode="&#xe93c;" d="M568.497 411.078c11.646-6.724 15.636-21.615 8.912-33.26s-21.615-15.636-33.26-8.912c-11.646 6.724-15.636 21.615-8.912 33.26s21.615 15.636 33.26 8.912z" />
<glyph unicode="&#xe93d;" d="M651.531 433.398c11.646-6.724 15.636-21.615 8.912-33.26s-21.615-15.636-33.26-8.912c-11.646 6.724-15.636 21.615-8.912 33.26s21.615 15.636 33.26 8.912z" />
<glyph unicode="&#xe93e;" d="M590.745 327.971c11.646-6.724 15.636-21.615 8.912-33.26s-21.615-15.636-33.26-8.912c-11.646 6.724-15.636 21.615-8.912 33.26s21.615 15.636 33.26 8.912z" />
<glyph unicode="&#xe93f;" d="M673.779 350.291c11.646-6.724 15.636-21.615 8.912-33.26s-21.615-15.636-33.26-8.912c-11.646 6.724-15.636 21.615-8.912 33.26s21.615 15.636 33.26 8.912z" />
<glyph unicode="&#xe940;" d="M696.099 267.112c11.646-6.724 15.636-21.615 8.912-33.26s-21.615-15.636-33.26-8.912c-11.646 6.724-15.636 21.615-8.912 33.26s21.615 15.636 33.26 8.912z" />
<glyph unicode="&#xe941;" d="M724.74 753.076l58.739 101.728 158.95 105.268h-103.173l-97.032-63.725-66.253-114.805c20.253-1.978 37.663-12.683 48.627-28.254z" />
<glyph unicode="&#xe942;" d="M0 960h1024v-1024h-1024v1024z" />
<glyph unicode="&#xe943;" d="M187.272 319.937c0-12.21-9.898-22.109-22.109-22.109s-22.109 9.898-22.109 22.109c0 12.21 9.898 22.109 22.109 22.109s22.109-9.898 22.109-22.109z" />
<glyph unicode="&#xe944;" d="M242.543 375.28c0-12.21-9.898-22.109-22.109-22.109s-22.109 9.898-22.109 22.109c0 12.21 9.898 22.109 22.109 22.109s22.109-9.898 22.109-22.109z" />
<glyph unicode="&#xe945;" d="M132.001 375.28c0-12.21-9.898-22.109-22.109-22.109s-22.109 9.898-22.109 22.109c0 12.21 9.898 22.109 22.109 22.109s22.109-9.898 22.109-22.109z" />
<glyph unicode="&#xe946;" d="M187.272 430.552c0-12.21-9.898-22.109-22.109-22.109s-22.109 9.898-22.109 22.109c0 12.21 9.898 22.109 22.109 22.109s22.109-9.898 22.109-22.109z" />
<glyph unicode="&#xe947;" d="M132.001 485.895c0-12.21-9.898-22.109-22.109-22.109s-22.109 9.898-22.109 22.109c0 12.21 9.898 22.109 22.109 22.109s22.109-9.898 22.109-22.109z" />
<glyph unicode="&#xe948;" d="M242.543 264.665c0-12.21-9.898-22.109-22.109-22.109s-22.109 9.898-22.109 22.109c0 12.21 9.898 22.109 22.109 22.109s22.109-9.898 22.109-22.109z" />
<glyph unicode="&#xe949;" d="M132.001 264.665c0-12.21-9.898-22.109-22.109-22.109s-22.109 9.898-22.109 22.109c0 12.21 9.898 22.109 22.109 22.109s22.109-9.898 22.109-22.109z" />
<glyph unicode="&#xe94a;" d="M187.272 209.394c0-12.21-9.898-22.109-22.109-22.109s-22.109 9.898-22.109 22.109c0 12.21 9.898 22.109 22.109 22.109s22.109-9.898 22.109-22.109z" />
<glyph unicode="&#xe94b;" d="M124.487 149.427c0-12.21-9.898-22.109-22.109-22.109s-22.109 9.898-22.109 22.109c0 12.21 9.898 22.109 22.109 22.109s22.109-9.898 22.109-22.109z" />
<glyph unicode="&#xe94c;" d="M880.006 720.852c-26.683 26.67-63.538 43.166-104.246 43.166-33.795 0-64.935-11.368-89.804-30.49-2.746-2.249-6.729-3.766-11.068-3.766s-8.322 1.517-11.45 4.050l-18.173 15.146c-3.171 2.657-7.295 4.271-11.796 4.271-5.103 0-9.721-2.075-13.058-5.426l-210.754-210.537c-3.352-3.337-5.427-7.955-5.427-13.058 0-4.501 1.614-8.625 4.295-11.824l97.803-117.378c2.672-3.176 4.296-7.311 4.296-11.826 0-9.704-7.502-17.655-17.023-18.371l-131.773-9.902c-0.378-0.027-0.819-0.043-1.263-0.043-7.043 0-13.17 3.921-16.317 9.699-12.391 22.009-32.829 38.133-57.206 44.532-1.966 0.483-3.485 0.678-5.050 0.678-10.175 0-18.424-8.249-18.424-18.424 0-0.010 0-0.021 0-0.031v-142.692c0-0.009 0-0.019 0-0.029 0-10.175 8.249-18.424 18.424-18.424 1.565 0 3.084 0.195 4.535 0.562 24.889 6.524 45.324 22.645 57.433 44.090 3.435 6.337 9.562 10.258 16.605 10.258 0.444 0 0.885-0.016 1.322-0.046l244.146-18.276c5.156-0.393 9.671-2.854 12.765-6.546l26.684-32.035c3.403-4.057 8.475-6.618 14.145-6.618 5.085 0 9.688 2.060 13.022 5.39l258.222 258.222c3.33 3.333 5.39 7.937 5.39 13.021 0 5.67-2.561 10.742-6.59 14.121l-17.73 14.473c-4.185 3.431-6.834 8.601-6.834 14.39 0 2.996 0.709 5.825 1.969 8.331 10.151 19.418 16.135 42.539 16.135 67.057 0 40.728-16.511 77.599-43.205 104.285zM836.656 589.863l-98.043 81.715c-4.037 3.415-6.584 8.485-6.584 14.149 0 7.99 5.067 14.797 12.163 17.383 9.492 3.557 20.313 5.592 31.609 5.592 50.836 0 92.047-41.211 92.047-92.047 0-5.845-0.545-11.562-1.586-17.104-1.703-7.833-9.065-14.046-17.878-14.046-4.539 0-8.694 1.648-11.898 4.379z" />
<glyph unicode="&#xe94d;" d="M0 960h1024v-1024h-1024v1024z" />
<glyph unicode="&#xe94e;" d="M414.788 857.622h194.497c8.499 0 15.389-6.89 15.389-15.389v0.072c0-8.499-6.89-15.389-15.389-15.389h-194.497c-8.499 0-15.389 6.89-15.389 15.389v-0.072c0 8.499 6.89 15.389 15.389 15.389z" />
<glyph unicode="&#xe94f;" d="M854.212 180.566l-249.841 449.251c-6.498 11.471-10.328 25.193-10.332 39.809v136.77h-163.935v-136.48c-0.003-14.617-3.834-28.339-10.544-40.219l-112.353-201.891-137.275-246.951c-6.495-11.472-10.322-25.194-10.322-39.81 0-45.246 36.676-81.926 81.921-81.932h540.792c0.035 0 0.077 0 0.119 0 45.25 0 81.932 36.682 81.932 81.932 0 14.5-3.767 28.12-10.375 39.935zM446.867 615.223c8.994 15.745 14.34 34.583 14.45 54.661v105.806h102.378v-105.774c0.103-20.11 5.45-38.95 14.742-55.249l160.176-289.528h-453.152z" />
<glyph unicode="&#xe950;" d="M0 960h1024v-1024h-1024v1024z" />
<glyph unicode="&#xe951;" d="M660.149 651.926l211.982-367.175c3.249-5.53 9.167-9.183 15.939-9.183 3.389 0 6.564 0.915 9.291 2.511l31.847 18.377c5.547 3.244 9.214 9.172 9.214 15.957 0 3.411-0.927 6.605-2.542 9.344l-211.718 367.089z" />
<glyph unicode="&#xe952;" d="M632.441 699.842l63.822 36.848 18.424-31.911-63.822-36.848-18.424 31.911z" />
<glyph unicode="&#xe953;" d="M688.037 753.004s-87.784 127.377-303.45 84.605c-210.32-41.616-257.066-225.203-257.066-225.203s138.431 112.855 297.526 134.891c13.923 1.968 30.004 3.092 46.349 3.092 55.147 0 107.305-12.794 153.668-35.576z" />
<glyph unicode="&#xe954;" d="M194.858 113.446v0-75.068h37.57v75.068h-37.57z" />
<glyph unicode="&#xe955;" d="M227.588 238.872v-100.139c55.305 0 100.139 44.834 100.139 100.139 0 0 0 0 0 0v99.922c0 0 0 0 0 0-55.229 0-100.015-44.71-100.138-99.91z" />
<glyph unicode="&#xe956;" d="M202.517 238.872v-100.139c-55.274 0.041-100.066 44.859-100.066 100.139 0 0 0 0 0 0v99.922c55.198-0.041 99.943-44.735 100.066-99.91z" />
<glyph unicode="&#xe957;" d="M227.588 435.898v-100.139c55.305 0 100.139 44.834 100.139 100.139 0 0 0 0 0 0v100.139c-55.305 0-100.139-44.834-100.139-100.139 0 0 0 0 0 0z" />
<glyph unicode="&#xe958;" d="M202.517 435.898v-100.139c0 0 0 0 0 0-55.305 0-100.139 44.834-100.139 100.139 0 0 0 0 0 0v100.139c0 0 0 0 0 0 55.305 0 100.139-44.834 100.139-100.139 0 0 0 0 0 0z" />
<glyph unicode="&#xe959;" d="M502.066 113.446v0-75.068h37.57v75.068h-37.57z" />
<glyph unicode="&#xe95a;" d="M534.795 238.872v-100.139c55.305 0 100.139 44.834 100.139 100.139 0 0 0 0 0 0v99.922c0 0 0 0 0 0-55.229 0-100.015-44.71-100.138-99.91z" />
<glyph unicode="&#xe95b;" d="M509.724 238.872v-100.139c-55.274 0.041-100.066 44.859-100.066 100.139 0 0 0 0 0 0v99.922c55.198-0.041 99.943-44.735 100.066-99.91z" />
<glyph unicode="&#xe95c;" d="M534.795 435.898v-100.139c0 0 0 0 0 0 55.305 0 100.139 44.834 100.139 100.139 0 0 0 0 0 0v100.139c0 0 0 0 0 0-55.305 0-100.139-44.834-100.139-100.139 0 0 0 0 0 0z" />
<glyph unicode="&#xe95d;" d="M509.724 435.898v-100.139c0 0 0 0 0 0-55.305 0-100.139 44.834-100.139 100.139 0 0 0 0 0 0v100.139c0 0 0 0 0 0 55.305 0 100.139-44.834 100.139-100.139 0 0 0 0 0 0z" />
<glyph unicode="&#xe95e;" d="M0 960h1024v-1024h-1024v1024z" />
<glyph unicode="&#xe95f;" d="M175.64 500.345c-0.14 41.368-31.607 75.343-71.911 79.447 40.303 4.16 71.771 38.135 71.911 79.489 0.14-41.354 31.607-75.329 71.911-79.433-40.303-4.16-71.771-38.135-71.911-79.489z" />
<glyph unicode="&#xe960;" d="M389.428 656.839c0 0.004 0 0.009 0 0.014 0 51.717-39.205 94.277-89.516 99.582 50.311 5.379 89.516 47.939 89.516 99.656 0 0.005 0 0.010 0 0.015 0-0.005 0-0.010 0-0.015 0-51.717 39.205-94.277 89.516-99.582-50.311-5.379-89.516-47.939-89.516-99.656 0-0.005 0-0.010 0-0.015z" />
<glyph unicode="&#xe961;" d="M617.449 500.345c-0.14 41.368-31.607 75.343-71.911 79.447 40.303 4.16 71.771 38.135 71.911 79.489 0.14-41.354 31.607-75.329 71.911-79.433-40.303-4.16-71.771-38.135-71.911-79.489z" />
<glyph unicode="&#xe962;" d="M831.309 656.839c0 0.004 0 0.009 0 0.014 0 51.717-39.205 94.277-89.516 99.582 50.311 5.379 89.516 47.939 89.516 99.656 0 0.005 0 0.010 0 0.015 0-0.005 0-0.010 0-0.015 0-51.717 39.205-94.277 89.516-99.582-50.311-5.379-89.516-47.939-89.516-99.656 0-0.005 0-0.010 0-0.015z" />
<glyph unicode="&#xe963;" d="M263.857 448.036c-12.321-0.591-22.693-8.341-27.092-19.157l-134.387-390.356h174.050l77.091 389.5c0.306 1.177 0.482 2.528 0.482 3.92 0 8.938-7.246 16.184-16.184 16.184-0.271 0-0.541-0.007-0.809-0.020l-73.152 0.001z" />
<glyph unicode="&#xe964;" d="M317.467 38.378h174.050l6.719 389.139c0.002 0.108 0.003 0.234 0.003 0.361 0 11.093-8.993 20.086-20.086 20.086-0.027 0-0.053 0-0.080 0h-73.185c-11.801-0.376-21.511-8.875-23.744-20.071z" />
<glyph unicode="&#xe965;" d="M545.921 448.036c-0.022 0-0.049 0-0.076 0-11.093 0-20.086-8.993-20.086-20.086 0-0.127 0.001-0.254 0.004-0.38l6.719-389.12h174.050l-63.652 389.428c-2.259 11.355-11.97 19.854-23.731 20.229l-73.229 0.001z" />
<glyph unicode="&#xe966;" d="M686.954 448.036c-0.23 0.012-0.5 0.018-0.771 0.018-8.938 0-16.184-7.246-16.184-16.184 0-1.392 0.176-2.743 0.506-4.032l77.066-389.388h174.050l-134.313 390.15c-4.473 11.022-14.845 18.772-27.096 19.36l-73.259 0.003z" />
<glyph unicode="&#xe967;" d="M0 960h1024v-1024h-1024v1024z" />
<glyph unicode="&#xe968;" d="M754.363 413.79l-51.876-309.23c-3.339-19.544-20.146-34.235-40.387-34.247h-300.417c-20.242 0.012-37.049 14.703-40.353 34.004l-51.549 309.473c-3.339 19.544-20.146 34.235-40.387 34.247h-126.945v-409.586h819.171v409.586h-126.871c-20.242-0.012-37.049-14.703-40.353-34.004z" />
<glyph unicode="&#xe969;" d="M491.084 692.458v0-117.117h39.015v117.117h-39.015z" />
<glyph unicode="&#xe96a;" d="M394.919 822.58h-104.257c0-57.5 46.613-104.112 104.112-104.112 0 0 0 0 0 0h104.112c0 0 0 0 0 0 0 57.449-46.53 104.030-103.96 104.112z" />
<glyph unicode="&#xe96b;" d="M629.153 822.58h104.112c0-57.5-46.613-104.112-104.112-104.112 0 0 0 0 0 0h-104.112c0 57.5 46.613 104.112 104.112 104.112 0 0 0 0 0 0z" />
<glyph unicode="&#xe96c;" d="M623.951 236.054h-223.975c-18.115 0.111-33.123 13.278-36.094 30.56l-39.769 238.644c-0.32 1.825-0.503 3.926-0.503 6.070 0 20.273 16.373 36.723 36.617 36.847h303.462c20.256-0.124 36.628-16.574 36.628-36.847 0-2.144-0.183-4.245-0.534-6.288l-39.706-238.206c-3.002-17.501-18.010-30.667-36.113-30.778z" />
<glyph unicode="&#xe96d;" glyph-name="google-plus2" d="M928 960h-832c-52.8 0-96-43.2-96-96v-832c0-52.8 43.2-96 96-96h832c52.8 0 96 43.2 96 96v832c0 52.8-43.2 96-96 96zM384 192c-141.6 0-256 114.4-256 256s114.4 256 256 256c69.2 0 127-25.2 171.6-67l-69.6-66.8c-19 18.2-52.2 39.4-102 39.4-87.4 0-158.8-72.4-158.8-161.6s71.4-161.6 158.8-161.6c101.4 0 139.4 72.8 145.2 110.4h-145.2v87.8h241.8c2.2-12.8 4-25.6 4-42.4 0-146.4-98-250.2-245.8-250.2zM896 448h-64v-64h-64v64h-64v64h64v64h64v-64h64v-64z" />
<glyph unicode="&#xe96e;" d="M335.317 781.234c0-34.508-27.974-62.481-62.481-62.481s-62.481 27.974-62.481 62.481c0 34.508 27.974 62.481 62.481 62.481s62.481-27.974 62.481-62.481z" />
<glyph unicode="&#xe96f;" d="M330.457 438.281c0-33.166-26.886-60.052-60.052-60.052s-60.052 26.886-60.052 60.052c0 33.166 26.886 60.052 60.052 60.052s60.052-26.886 60.052-60.052z" />
<glyph unicode="&#xe970;" d="M330.804 612.881c0-32.974-26.731-59.704-59.704-59.704s-59.704 26.731-59.704 59.704c0 32.974 26.731 59.704 59.704 59.704s59.704-26.731 59.704-59.704z" />
<glyph unicode="&#xe971;" d="M331.498 267.151c0-33.166-26.886-60.052-60.052-60.052s-60.052 26.886-60.052 60.052c0 33.166 26.886 60.052 60.052 60.052s60.052-26.886 60.052-60.052z" />
<glyph unicode="&#xe972;" d="M335.317 93.245c0-34.124-27.663-61.787-61.787-61.787s-61.787 27.663-61.787 61.787c0 34.124 27.663 61.787 61.787 61.787s61.787-27.663 61.787-61.787z" />
<glyph unicode="&#xe973;" d="M374.541 815.599h477.288v-68.382h-477.288v68.382z" />
<glyph unicode="&#xe974;" d="M374.541 646.899h477.288v-68.382h-477.288v68.382z" />
<glyph unicode="&#xe975;" d="M374.541 472.645h477.288v-68.382h-477.288v68.382z" />
<glyph unicode="&#xe976;" d="M374.541 301.169h477.288v-68.382h-477.288v68.382z" />
<glyph unicode="&#xe977;" d="M374.541 127.262h477.288v-68.382h-477.288v68.382z" />
<glyph unicode="&#xe978;" d="M802.885 378.229l-250.967 437.369h250.967z" />
<glyph unicode="&#xe979;" d="M551.919 378.229l250.967 437.369h-250.967z" />
<glyph unicode="&#xe97a;" d="M0 960h1024v-1024h-1024v1024z" />
<glyph unicode="&#xe97b;" d="M233.958 836.079c0-31.057-25.176-56.233-56.233-56.233s-56.233 25.176-56.233 56.233c0 31.057 25.176 56.233 56.233 56.233s56.233-25.176 56.233-56.233z" />
<glyph unicode="&#xe97c;" d="M233.958 638.221c0-31.057-25.176-56.233-56.233-56.233s-56.233 25.176-56.233 56.233c0 31.057 25.176 56.233 56.233 56.233s56.233-25.176 56.233-56.233z" />
<glyph unicode="&#xe97d;" d="M233.958 440.363c0-31.057-25.176-56.233-56.233-56.233s-56.233 25.176-56.233 56.233c0 31.057 25.176 56.233 56.233 56.233s56.233-25.176 56.233-56.233z" />
<glyph unicode="&#xe97e;" d="M233.958 242.506c0-31.057-25.176-56.233-56.233-56.233s-56.233 25.176-56.233 56.233c0 31.057 25.176 56.233 56.233 56.233s56.233-25.176 56.233-56.233z" />
<glyph unicode="&#xe97f;" d="M233.958 44.648c0-31.057-25.176-56.233-56.233-56.233s-56.233 25.176-56.233 56.233c0 31.057 25.176 56.233 56.233 56.233s56.233-25.176 56.233-56.233z" />
<glyph unicode="&#xe980;" d="M325.944 867.666h537.687v-63.176h-537.687v63.176z" />
<glyph unicode="&#xe981;" d="M325.944 669.809h537.687v-63.176h-537.687v63.176z" />
<glyph unicode="&#xe982;" d="M325.944 471.951h537.687v-63.176h-537.687v63.176z" />
<glyph unicode="&#xe983;" d="M325.944 274.094h537.687v-63.176h-537.687v63.176z" />
<glyph unicode="&#xe984;" d="M325.944 76.236h537.687v-63.176h-537.687v63.176z" />
<glyph unicode="&#xe985;" d="M335.317 781.234c0-34.508-27.974-62.481-62.481-62.481s-62.481 27.974-62.481 62.481c0 34.508 27.974 62.481 62.481 62.481s62.481-27.974 62.481-62.481z" />
<glyph unicode="&#xe986;" d="M330.457 438.281c0-33.166-26.886-60.052-60.052-60.052s-60.052 26.886-60.052 60.052c0 33.166 26.886 60.052 60.052 60.052s60.052-26.886 60.052-60.052z" />
<glyph unicode="&#xe987;" d="M330.804 612.881c0-32.974-26.731-59.704-59.704-59.704s-59.704 26.731-59.704 59.704c0 32.974 26.731 59.704 59.704 59.704s59.704-26.731 59.704-59.704z" />
<glyph unicode="&#xe988;" d="M331.498 267.151c0-33.166-26.886-60.052-60.052-60.052s-60.052 26.886-60.052 60.052c0 33.166 26.886 60.052 60.052 60.052s60.052-26.886 60.052-60.052z" />
<glyph unicode="&#xe989;" d="M335.317 93.245c0-34.124-27.663-61.787-61.787-61.787s-61.787 27.663-61.787 61.787c0 34.124 27.663 61.787 61.787 61.787s61.787-27.663 61.787-61.787z" />
<glyph unicode="&#xe98a;" d="M374.541 815.599h477.288v-68.382h-477.288v68.382z" />
<glyph unicode="&#xe98b;" d="M374.541 646.899h477.288v-68.382h-477.288v68.382z" />
<glyph unicode="&#xe98c;" d="M374.541 472.645h477.288v-68.382h-477.288v68.382z" />
<glyph unicode="&#xe98d;" d="M374.541 301.169h477.288v-68.382h-477.288v68.382z" />
<glyph unicode="&#xe98e;" d="M374.541 127.262h477.288v-68.382h-477.288v68.382z" />
<glyph unicode="&#xe98f;" d="M923.336 18.267h-812.258v565.803z" />
<glyph unicode="&#xe990;" d="M374.194 683.346c0-29.907-24.244-54.151-54.151-54.151s-54.151 24.244-54.151 54.151c0 29.907 24.244 54.151 54.151 54.151s54.151-24.244 54.151-54.151z" />
<glyph unicode="&#xe991;" d="M370.028 386.213c0-28.756-23.312-52.068-52.068-52.068s-52.068 23.312-52.068 52.068c0 28.756 23.312 52.068 52.068 52.068s52.068-23.312 52.068-52.068z" />
<glyph unicode="&#xe992;" d="M370.376 537.209c0-28.565-23.156-51.721-51.721-51.721s-51.721 23.156-51.721 51.721c0 28.565 23.156 51.721 51.721 51.721s51.721-23.156 51.721-51.721z" />
<glyph unicode="&#xe993;" d="M371.070 237.646c0-28.756-23.312-52.068-52.068-52.068s-52.068 23.312-52.068 52.068c0 28.756 23.312 52.068 52.068 52.068s52.068-23.312 52.068-52.068z" />
<glyph unicode="&#xe994;" d="M374.194 86.997c0-29.523-23.933-53.456-53.456-53.456s-53.456 23.933-53.456 53.456c0 29.523 23.933 53.456 53.456 53.456s53.456-23.933 53.456-53.456z" />
<glyph unicode="&#xe995;" d="M408.212 712.852h413.418v-59.357h-413.418v59.357z" />
<glyph unicode="&#xe996;" d="M408.212 567.062h413.418v-59.357h-413.418v59.357z" />
<glyph unicode="&#xe997;" d="M408.212 415.718h413.418v-59.357h-413.418v59.357z" />
<glyph unicode="&#xe998;" d="M408.212 267.498h413.418v-59.357h-413.418v59.357z" />
<glyph unicode="&#xe999;" d="M408.212 116.849h413.418v-59.357h-413.418v59.357z" />
<glyph unicode="&#xe99a;" d="M341.912 860.377l-97.193 63.523-0.694-53.109h-214.519v-143.36h213.478l-0.694-53.109 98.582 61.44 98.582 61.093z" />
<glyph unicode="&#xe99b;" glyph-name="295px5" d="M191.957 695.843h194.386v-194.386h-194.386v194.386zM422.443 695.843h194.386v-194.386h-194.386v194.386zM652.583 695.843h194.386v-194.386h-194.386v194.386zM422.443 460.149h194.386v-194.386h-194.386v194.386zM422.443 224.456h194.386v-194.386h-194.386v194.386zM191.957 460.149h194.386v-194.386h-194.386v194.386zM191.957 224.456h194.386v-194.386h-194.386v194.386zM191.957 868.014h655.013v-125.657h-655.013v125.657zM652.583 460.149h194.386v-429.733h-194.386v429.733z" />
</font>
</defs>
</svg>
