<svg id="レイヤー_1" data-name="レイヤー 1" xmlns="http://www.w3.org/2000/svg" viewBox="0 0 141.73 141.73"><defs><style>.cls-1{fill:#231815;}.cls-2{fill:#fff;}</style></defs><title>agryeel_icon_R_02</title><rect id="_長方形_" data-name="&lt;長方形&gt;" class="cls-1" width="141.73" height="141.73"/><g id="_グループ_" data-name="&lt;グループ&gt;"><circle id="_パス_" data-name="&lt;パス&gt;" class="cls-2" cx="26.81" cy="101.44" r="4.25"/><circle id="_パス_2" data-name="&lt;パス&gt;" class="cls-2" cx="44.7" cy="101.44" r="4.25"/><circle id="_パス_3" data-name="&lt;パス&gt;" class="cls-2" cx="62.6" cy="101.44" r="4.25"/><circle id="_パス_4" data-name="&lt;パス&gt;" class="cls-2" cx="17.86" cy="112.37" r="4.25"/><circle id="_パス_5" data-name="&lt;パス&gt;" class="cls-2" cx="35.75" cy="112.37" r="4.25"/><circle id="_パス_6" data-name="&lt;パス&gt;" class="cls-2" cx="53.65" cy="112.37" r="4.25"/><circle id="_パス_7" data-name="&lt;パス&gt;" class="cls-2" cx="71.55" cy="112.37" r="4.25"/><circle id="_パス_8" data-name="&lt;パス&gt;" class="cls-2" cx="17.86" cy="123.31" r="4.25"/><circle id="_パス_9" data-name="&lt;パス&gt;" class="cls-2" cx="26.81" cy="123.31" r="4.25"/><circle id="_パス_10" data-name="&lt;パス&gt;" class="cls-2" cx="35.75" cy="123.31" r="4.25"/><circle id="_パス_11" data-name="&lt;パス&gt;" class="cls-2" cx="44.7" cy="123.31" r="4.25"/><circle id="_パス_12" data-name="&lt;パス&gt;" class="cls-2" cx="53.65" cy="123.31" r="4.25"/><circle id="_パス_13" data-name="&lt;パス&gt;" class="cls-2" cx="62.6" cy="123.31" r="4.25"/><circle id="_パス_14" data-name="&lt;パス&gt;" class="cls-2" cx="71.55" cy="123.31" r="4.25"/><circle id="_パス_15" data-name="&lt;パス&gt;" class="cls-2" cx="80.5" cy="123.31" r="4.25"/><circle id="_パス_16" data-name="&lt;パス&gt;" class="cls-2" cx="89.45" cy="123.31" r="4.25"/><g id="_グループ_2" data-name="&lt;グループ&gt;"><path id="_パス_17" data-name="&lt;パス&gt;" class="cls-2" d="M284.14,304.35l55.23-31.89-30.61-53L242.48,257.7l21.15,36.64A20.41,20.41,0,0,1,284.14,304.35Z" transform="translate(-210.77 -209.19)"/><path id="_パス_18" data-name="&lt;パス&gt;" class="cls-2" d="M240.27,259l-2.21,1.28,20.49,35.49a20.35,20.35,0,0,1,2.45-.86Z" transform="translate(-210.77 -209.19)"/><rect id="_パス_19" data-name="&lt;パス&gt;" class="cls-2" x="326.11" y="213.42" width="2.55" height="61.23" transform="translate(-288.93 -12.8) rotate(-30)"/></g></g></svg>