<svg id="レイヤー_1" data-name="レイヤー 1" xmlns="http://www.w3.org/2000/svg" viewBox="0 0 141.73 141.73"><defs><style>.cls-1{fill:#231815;}.cls-2{fill:#fff;}</style></defs><title>agryeel_icon_R_10</title><rect id="_長方形_" data-name="&lt;長方形&gt;" class="cls-1" width="141.73" height="141.73"/><g id="_グループ_" data-name="&lt;グループ&gt;"><path id="_パス_" data-name="&lt;パス&gt;" class="cls-2" d="M315.18,284.79L308,327.59a5.67,5.67,0,0,1-5.59,4.74H260.83a5.67,5.67,0,0,1-5.59-4.74l-7.13-42.8a5.67,5.67,0,0,0-5.59-4.74H224.95v56.69H338.33V280.05H320.77A5.67,5.67,0,0,0,315.18,284.79Z" transform="translate(-210.77 -209.19)"/></g><g id="_グループ_2" data-name="&lt;グループ&gt;"><g id="_グループ_3" data-name="&lt;グループ&gt;"><g id="_グループ_4" data-name="&lt;グループ&gt;"><g id="_グループ_5" data-name="&lt;グループ&gt;"><polygon id="_パス_2" data-name="&lt;パス&gt;" class="cls-2" points="67.97 37.03 67.97 37.03 67.97 53.24 73.37 53.24 73.37 37.03 67.97 37.03"/><path id="_パス_3" data-name="&lt;パス&gt;" class="cls-2" d="M265.43,228.21H251a14.41,14.41,0,0,0,14.41,14.41h14.41A14.41,14.41,0,0,0,265.43,228.21Z" transform="translate(-210.77 -209.19)"/><path id="_パス_4" data-name="&lt;パス&gt;" class="cls-2" d="M297.85,228.21h14.41a14.41,14.41,0,0,1-14.41,14.41H283.44A14.41,14.41,0,0,1,297.85,228.21Z" transform="translate(-210.77 -209.19)"/></g></g></g><path id="_パス_5" data-name="&lt;パス&gt;" class="cls-2" d="M297.13,309.39h-31a5.1,5.1,0,0,1-5-4.26l-5.5-33a5.1,5.1,0,0,1,5-5.94h42a5.1,5.1,0,0,1,5,5.94l-5.5,33A5.1,5.1,0,0,1,297.13,309.39Z" transform="translate(-210.77 -209.19)"/></g></svg>