<svg id="レイヤー_1" data-name="レイヤー 1" xmlns="http://www.w3.org/2000/svg" viewBox="0 0 141.73 141.73"><defs><style>.cls-1{fill:#231815;}.cls-2{fill:#fff;}</style></defs><title>agryeel_icon_R_06</title><rect id="_長方形_" data-name="&lt;長方形&gt;" class="cls-1" width="141.73" height="141.73"/><g id="_グループ_" data-name="&lt;グループ&gt;"><g id="_グループ_2" data-name="&lt;グループ&gt;"><circle id="_パス_" data-name="&lt;パス&gt;" class="cls-2" cx="22.86" cy="88.59" r="3.06"/><circle id="_パス_2" data-name="&lt;パス&gt;" class="cls-2" cx="30.51" cy="80.93" r="3.06"/><circle id="_パス_3" data-name="&lt;パス&gt;" class="cls-2" cx="15.21" cy="80.93" r="3.06"/><circle id="_パス_4" data-name="&lt;パス&gt;" class="cls-2" cx="22.86" cy="73.28" r="3.06"/><circle id="_パス_5" data-name="&lt;パス&gt;" class="cls-2" cx="15.21" cy="65.62" r="3.06"/><circle id="_パス_6" data-name="&lt;パス&gt;" class="cls-2" cx="30.51" cy="96.24" r="3.06"/><circle id="_パス_7" data-name="&lt;パス&gt;" class="cls-2" cx="15.21" cy="96.24" r="3.06"/><circle id="_パス_8" data-name="&lt;パス&gt;" class="cls-2" cx="22.86" cy="103.89" r="3.06"/><circle id="_パス_9" data-name="&lt;パス&gt;" class="cls-2" cx="14.17" cy="112.19" r="3.06"/></g><path id="_複合パス_" data-name="&lt;複合パス&gt;" class="cls-2" d="M332.57,242.29a20.41,20.41,0,0,0-26.81-1.79,2.52,2.52,0,0,1-3.16,0l-2.52-2.1a2.55,2.55,0,0,0-3.44.16L267.47,267.7a2.55,2.55,0,0,0-.16,3.44l13.54,16.25a2.55,2.55,0,0,1-1.77,4.18l-18.23,1.37a2.57,2.57,0,0,1-2.44-1.35,12.77,12.77,0,0,0-8-6.17,2.55,2.55,0,0,0-3.16,2.48v19.75a2.55,2.55,0,0,0,3.16,2.48,12.78,12.78,0,0,0,8-6.17,2.57,2.57,0,0,1,2.44-1.35l33.8,2.53a2.55,2.55,0,0,1,1.77.91l3.69,4.43a2.55,2.55,0,0,0,3.76.17l35.74-35.74a2.55,2.55,0,0,0-.17-3.76l-2.45-2a2.57,2.57,0,0,1-.68-3.13A20.41,20.41,0,0,0,332.57,242.29Zm-6,18.13L313,249.11a2.56,2.56,0,0,1,.79-4.37A12.74,12.74,0,0,1,330.68,259,2.54,2.54,0,0,1,326.55,260.42Z" transform="translate(-210.77 -209.19)"/></g></svg>