<?xml version="1.0" encoding="utf-8"?>
<!-- Generator: Adobe Illustrator 23.1.0, SVG Export Plug-In . SVG Version: 6.00 Build 0)  -->
<svg version="1.1" id="レイヤー_1" xmlns="http://www.w3.org/2000/svg" xmlns:xlink="http://www.w3.org/1999/xlink" x="0px"
	 y="0px" viewBox="0 0 1920 1080" style="enable-background:new 0 0 1920 1080;" xml:space="preserve">
<style type="text/css">
	.st0{fill:#FFFFFF;}
	.st1{fill:#1A237E;}
	.st2{fill:#004D40;}
	.st3{fill:#B71C1C;}
	.st4{fill:#F57F17;}
	.st5{font-family:'Almaq-Refined';}
	.st6{font-size:148.5667px;}
</style>
<rect class="st0" width="1920" height="1080"/>
<path class="st1" d="M734.88,785.5h-85.35V165.42h85.35V785.5z"/>
<path class="st2" d="M1311.42,720.18c-53.12,45.29-121.92,72.28-196.82,72.28c-171.57,0-310.04-141.96-310.04-317.01
	c0-175.05,138.47-317.01,310.04-317.01c74.9,0,143.7,27,196.82,72.28l-196.82,244.72L1311.42,720.18z"/>
<polygon class="st3" points="324.7,152.36 210.28,426 313,426 313,489 183.93,489 59.95,785.5 588.58,785.5 "/>
<polygon class="st4" points="1698,714 1698,651 1827.54,651 1619.71,152.36 1354.96,785.5 1883.59,785.5 1853.79,714 "/>
<text transform="matrix(1 0 0 1 118.3594 950.1563)" class="st5 st6">AI Communication Agriculture</text>
</svg>
