<svg id="レイヤー_1" data-name="レイヤー 1" xmlns="http://www.w3.org/2000/svg" viewBox="0 0 141.73 141.73"><defs><style>.cls-1{fill:#231815;}.cls-2{fill:#fff;}</style></defs><title>agryeel_icon_R_03</title><rect id="_長方形_" data-name="&lt;長方形&gt;" class="cls-1" width="141.73" height="141.73"/><g id="_グループ_" data-name="&lt;グループ&gt;"><g id="_グループ_2" data-name="&lt;グループ&gt;"><path id="_パス_" data-name="&lt;パス&gt;" class="cls-2" d="M300,261.63V243.2a5.67,5.67,0,0,0-5.67,5.67h0v12.76H300Z" transform="translate(-210.77 -209.19)"/><g id="_グループ_3" data-name="&lt;グループ&gt;"><path id="_複合パス_" data-name="&lt;複合パス&gt;" class="cls-2" d="M251.88,267.3a28.35,28.35,0,1,0,28.35,28.35A28.35,28.35,0,0,0,251.88,267.3Zm0,42.52A14.17,14.17,0,1,1,266,295.64,14.19,14.19,0,0,1,251.88,309.82Z" transform="translate(-210.77 -209.19)"/><path id="_複合パス_2" data-name="&lt;複合パス&gt;" class="cls-2" d="M321.32,287.14a18.43,18.43,0,1,0,18.43,18.43A18.43,18.43,0,0,0,321.32,287.14Zm0,28.35a9.92,9.92,0,1,1,9.92-9.92A9.93,9.93,0,0,1,321.32,315.49Z" transform="translate(-210.77 -209.19)"/></g><path id="_複合パス_3" data-name="&lt;複合パス&gt;" class="cls-2" d="M321.32,284.3a21.12,21.12,0,0,1,12.76,4.29V275.8a11.34,11.34,0,0,0-11.34-11.34h-35a5.67,5.67,0,0,1-5.56-4.56l-3.85-19.23a5.67,5.67,0,0,0-5.56-4.56H246.21a5.67,5.67,0,0,0-5.67,5.67v24.82A31.16,31.16,0,0,1,280.91,307h19.22c0-.47-0.07-0.94-0.07-1.42A21.28,21.28,0,0,1,321.32,284.3Zm-52.1-26.93H251.88a4.25,4.25,0,0,1-4.25-4.25v-5.67a4.25,4.25,0,0,1,4.25-4.25h16.22a4.25,4.25,0,0,1,4.17,3.42l1.13,5.67A4.25,4.25,0,0,1,269.23,257.38Z" transform="translate(-210.77 -209.19)"/></g><path id="_パス_2" data-name="&lt;パス&gt;" class="cls-2" d="M251.88,307a11.34,11.34,0,1,1,11.34-11.34A11.35,11.35,0,0,1,251.88,307Z" transform="translate(-210.77 -209.19)"/><circle id="_パス_3" data-name="&lt;パス&gt;" class="cls-2" cx="110.55" cy="96.38" r="7.09"/><g id="_グループ_4" data-name="&lt;グループ&gt;"><path id="_複合パス_4" data-name="&lt;複合パス&gt;" class="cls-1" d="M324.08,279.62h-4.25a5.67,5.67,0,1,1,0-11.34h4.25A5.67,5.67,0,1,1,324.08,279.62Z" transform="translate(-210.77 -209.19)"/></g><path id="_パス_4" data-name="&lt;パス&gt;" class="cls-2" d="M319.83,271.12h4.25a2.83,2.83,0,1,1,0,5.67h-4.25A2.83,2.83,0,1,1,319.83,271.12Z" transform="translate(-210.77 -209.19)"/></g></svg>