<svg id="レイヤー_1" data-name="レイヤー 1" xmlns="http://www.w3.org/2000/svg" viewBox="0 0 141.73 141.73"><defs><style>.cls-1{fill:#231815;}.cls-2{fill:#fff;}</style></defs><title>agryeel_icon_R_05</title><rect id="_長方形_" data-name="&lt;長方形&gt;" class="cls-1" width="141.73" height="141.73"/><g id="_グループ_" data-name="&lt;グループ&gt;"><path id="_パス_" data-name="&lt;パス&gt;" class="cls-2" d="M237,311.23a25.71,25.71,0,0,0-3.4.23,25.53,25.53,0,0,1,20.53,16.47,25.46,25.46,0,0,0-29.21,1.38,25.51,25.51,0,0,1,29.41,7.44h8.26l-0.09-.15A25.51,25.51,0,0,0,237,311.23Z" transform="translate(-210.77 -209.19)"/><path id="_パス_2" data-name="&lt;パス&gt;" class="cls-2" d="M276.77,311.23a25.71,25.71,0,0,0-3.4.23,25.53,25.53,0,0,1,20.53,16.47,25.46,25.46,0,0,0-29.21,1.38,25.51,25.51,0,0,1,29.41,7.44h8.26l-0.09-.15A25.51,25.51,0,0,0,276.77,311.23Z" transform="translate(-210.77 -209.19)"/><path id="_パス_3" data-name="&lt;パス&gt;" class="cls-2" d="M314.09,316.34a20.56,20.56,0,0,0-2.72.19,20.42,20.42,0,0,1,16.43,13.18,20.36,20.36,0,0,0-23.37,1.09A20.41,20.41,0,0,1,328,336.75h6.61l-0.07-.12A20.41,20.41,0,0,0,314.09,316.34Z" transform="translate(-210.77 -209.19)"/><circle id="_パス_4" data-name="&lt;パス&gt;" class="cls-2" cx="293.1" cy="262" r="3.37" transform="translate(-291.12 175.64) rotate(-60)"/><circle id="_パス_5" data-name="&lt;パス&gt;" class="cls-2" cx="284.68" cy="276.58" r="3.37" transform="translate(-307.96 175.65) rotate(-60)"/><circle id="_パス_6" data-name="&lt;パス&gt;" class="cls-2" cx="281.6" cy="265.08" r="3.37" transform="translate(-299.53 167.23) rotate(-60)"/><circle id="_パス_7" data-name="&lt;パス&gt;" class="cls-2" cx="273.18" cy="279.66" r="3.37" transform="translate(-316.37 167.23) rotate(-60)"/><circle id="_パス_8" data-name="&lt;パス&gt;" class="cls-2" cx="270.1" cy="268.16" r="3.37" transform="translate(-307.95 158.81) rotate(-60)"/><circle id="_パス_9" data-name="&lt;パス&gt;" class="cls-2" cx="261.68" cy="282.74" r="3.37" transform="translate(-324.79 158.8) rotate(-60)"/><circle id="_パス_10" data-name="&lt;パス&gt;" class="cls-2" cx="258.6" cy="271.24" r="3.37" transform="translate(-316.37 150.39) rotate(-60)"/><circle id="_パス_11" data-name="&lt;パス&gt;" class="cls-2" cx="247.1" cy="274.32" r="3.37" transform="translate(-324.79 141.97) rotate(-60)"/><circle id="_パス_12" data-name="&lt;パス&gt;" class="cls-2" cx="296.19" cy="273.5" r="3.37" transform="translate(-299.53 184.07) rotate(-60)"/><path id="_パス_13" data-name="&lt;パス&gt;" class="cls-2" d="M308.89,246.31a6.24,6.24,0,0,0-10.8-6.24l-1.56,2.7,10.8,6.24Z" transform="translate(-210.77 -209.19)"/><rect id="_パス_14" data-name="&lt;パス&gt;" class="cls-2" x="295.69" y="245.06" width="6.24" height="12.47" transform="translate(-279 175.24) rotate(-60)"/><circle id="_パス_15" data-name="&lt;パス&gt;" class="cls-2" cx="276.27" cy="291.16" r="3.37" transform="translate(-324.79 175.65) rotate(-60)"/><circle id="_パス_16" data-name="&lt;パス&gt;" class="cls-2" cx="287.77" cy="288.08" r="3.37" transform="translate(-316.37 184.07) rotate(-60)"/><circle id="_パス_17" data-name="&lt;パス&gt;" class="cls-2" cx="299.27" cy="285" r="3.37" transform="translate(-307.96 192.48) rotate(-60)"/><circle id="_パス_18" data-name="&lt;パス&gt;" class="cls-2" cx="290.85" cy="299.58" r="3.37" transform="translate(-324.79 192.49) rotate(-60)"/><circle id="_パス_19" data-name="&lt;パス&gt;" class="cls-2" cx="302.35" cy="296.5" r="3.37" transform="translate(-316.38 200.9) rotate(-60)"/><circle id="_パス_20" data-name="&lt;パス&gt;" class="cls-2" cx="305.43" cy="308" r="3.37" transform="translate(-324.79 209.33) rotate(-60)"/><path id="_パス_21" data-name="&lt;パス&gt;" class="cls-2" d="M311.08,237.83l8.13-14.08,22-14.57H326.93L313.5,218l-9.17,15.89A9.3,9.3,0,0,1,311.08,237.83Z" transform="translate(-210.77 -209.19)"/></g></svg>