<svg id="レイヤー_1" data-name="レイヤー 1" xmlns="http://www.w3.org/2000/svg" viewBox="0 0 141.73 141.73"><defs><style>.cls-1{fill:#231815;}.cls-2{fill:#fff;}</style></defs><title>agryeel_icon_S_01</title><rect id="_長方形_" data-name="&lt;長方形&gt;" class="cls-1" width="141.73" height="141.73"/><g id="_グループ_" data-name="&lt;グループ&gt;"><g id="_グループ_2" data-name="&lt;グループ&gt;"><path id="_パス_" data-name="&lt;パス&gt;" class="cls-2" d="M332.56,261.71l-61.37-35.43a7.11,7.11,0,0,0-9.68,2.59l-7.8,13.5,73.65,42.52,7.8-13.5A7.11,7.11,0,0,0,332.56,261.71Z" transform="translate(-209.77 -209.19)"/><path id="_パス_2" data-name="&lt;パス&gt;" class="cls-2" d="M321,284.51l-4.91-2.83h0l-4.91-2.83h0L306.3,276h0l-4.91-2.83h0l-4.91-2.83-4.91-2.83h0l-4.91-2.83-4.91-2.83L276.84,259l-4.91-2.83h0L267,253.33l-4.91-2.83h0l-4.91-2.83-4.91-2.83-28.35,49.1-2.83,4.91a5.67,5.67,0,0,0,7.74-2.08h0l21.27-36.84a2.83,2.83,0,0,1,4.91,2.83l-21.27,36.85-2.83,4.91a5.67,5.67,0,0,0,7.74-2.08h0l21.27-36.84a2.83,2.83,0,0,1,4.91,2.83l-21.27,36.85-2.83,4.91a5.67,5.67,0,0,0,7.74-2.08h0l21.27-36.84a2.83,2.83,0,0,1,4.91,2.83l-21.27,36.84-2.83,4.91a5.67,5.67,0,0,0,7.74-2.08h0l21.27-36.84a2.83,2.83,0,0,1,4.91,2.83L263.23,316.6l-2.83,4.91a5.67,5.67,0,0,0,7.74-2.08h0l21.27-36.84a2.83,2.83,0,0,1,4.91,2.83L273,322.27l-2.83,4.91A5.67,5.67,0,0,0,278,325.1h0l21.27-36.84a2.83,2.83,0,0,1,4.91,2.83l-21.27,36.84L280,332.85a5.67,5.67,0,0,0,7.74-2.08h0L309,293.93a2.83,2.83,0,0,1,4.91,2.83l-21.27,36.85-2.83,4.91a5.67,5.67,0,0,0,7.74-2.08h0l28.35-49.1L321,284.51h0Z" transform="translate(-209.77 -209.19)"/></g><polygon id="_パス_3" data-name="&lt;パス&gt;" class="cls-2" points="98.43 35.18 118.74 0 105.65 0 88.61 29.51 98.43 35.18"/></g></svg>